<?xml version="1.0" encoding="UTF-8"?>
<svg width="34px" height="34px" viewBox="0 0 34 34" version="1.1" xmlns="http://www.w3.org/2000/svg" xmlns:xlink="http://www.w3.org/1999/xlink">
    <!-- Generator: Sketch 61.2 (89653) - https://sketch.com -->
    <title>Places/ic_business_center</title>
    <desc>Created with Sketch.</desc>
    <defs>
        <path d="M6.66666667,10 L3.33333333,10 L3.33333333,33.3333333 C3.33333333,35.1666667 4.83333333,36.6666667 6.66666667,36.6666667 L30,36.6666667 L30,33.3333333 L6.66666667,33.3333333 L6.66666667,10 L6.66666667,10 Z M33.3333333,3.33333333 L13.3333333,3.33333333 C11.5,3.33333333 10,4.83333333 10,6.66666667 L10,26.6666667 C10,28.5 11.5,30 13.3333333,30 L33.3333333,30 C35.1666667,30 36.6666667,28.5 36.6666667,26.6666667 L36.6666667,6.66666667 C36.6666667,4.83333333 35.1666667,3.33333333 33.3333333,3.33333333 L33.3333333,3.33333333 Z M31.6666667,18.3333333 L15,18.3333333 L15,15 L31.6666667,15 L31.6666667,18.3333333 L31.6666667,18.3333333 Z M25,25 L15,25 L15,21.6666667 L25,21.6666667 L25,25 L25,25 Z M31.6666667,11.6666667 L15,11.6666667 L15,8.33333333 L31.6666667,8.33333333 L31.6666667,11.6666667 L31.6666667,11.6666667 Z" id="path-1"></path>
    </defs>
    <g id="DASHBOARD" stroke="none" stroke-width="1" fill="none" fill-rule="evenodd">
        <g id="00_Dashboard_DE-Copy" transform="translate(-733.000000, -1028.000000)">
            <g id="Statistics_part_1" transform="translate(283.000000, 1000.000000)">
                <g id="REVENUE-2" transform="translate(407.000000, 0.000000)">
                    <g id="ICON" transform="translate(15.000000, 0.000000)">
                        <g id="Places/ic_business_center" transform="translate(25.000000, 25.000000)">
                            <polygon id="Bounds" points="0 0 40 0 40 40 0 40"></polygon>
                            <mask id="mask-2" fill="white">
                                <use xlink:href="#path-1"></use>
                            </mask>
                            <use id="Mask" fill="#000000" xlink:href="#path-1"></use>
                            <g id="Color-/-Color-01" mask="url(#mask-2)" fill="#FFFFFF">
                                <rect id="color" x="0" y="0" width="40" height="40"></rect>
                            </g>
                        </g>
                    </g>
                </g>
            </g>
        </g>
    </g>
</svg>