<?xml version="1.0" encoding="UTF-8"?>
<svg width="34px" height="28px" viewBox="0 0 34 28" version="1.1" xmlns="http://www.w3.org/2000/svg" xmlns:xlink="http://www.w3.org/1999/xlink">
    <!-- Generator: Sketch 61.2 (89653) - https://sketch.com -->
    <title>Places/ic_business_center</title>
    <desc>Created with Sketch.</desc>
    <defs>
        <path d="M33.3333333,10 L20,10 L16.6666667,6.66666667 L6.66666667,6.66666667 C4.83333333,6.66666667 3.35,8.16666667 3.35,10 L3.33333333,30 C3.33333333,31.8333333 4.83333333,33.3333333 6.66666667,33.3333333 L33.3333333,33.3333333 C35.1666667,33.3333333 36.6666667,31.8333333 36.6666667,30 L36.6666667,13.3333333 C36.6666667,11.5 35.1666667,10 33.3333333,10 L33.3333333,10 Z M25,15 C26.8333333,15 28.3333333,16.5 28.3333333,18.3333333 C28.3333333,20.1666667 26.8333333,21.6666667 25,21.6666667 C23.1666667,21.6666667 21.6666667,20.1666667 21.6666667,18.3333333 C21.6666667,16.5 23.1666667,15 25,15 L25,15 Z M31.6666667,28.3333333 L18.3333333,28.3333333 L18.3333333,26.6666667 C18.3333333,24.45 22.7833333,23.3333333 25,23.3333333 C27.2166667,23.3333333 31.6666667,24.45 31.6666667,26.6666667 L31.6666667,28.3333333 L31.6666667,28.3333333 Z" id="path-1"></path>
    </defs>
    <g id="DASHBOARD" stroke="none" stroke-width="1" fill="none" fill-rule="evenodd">
        <g id="00_Dashboard_DE-Copy" transform="translate(-1140.000000, -1031.000000)">
            <g id="Statistics_part_1" transform="translate(283.000000, 1000.000000)">
                <g id="REVENUE-3" transform="translate(814.000000, 0.000000)">
                    <g id="ICON" transform="translate(15.000000, 0.000000)">
                        <g id="Places/ic_business_center" transform="translate(25.000000, 25.000000)">
                            <polygon id="Bounds" points="0 0 40 0 40 40 0 40"></polygon>
                            <mask id="mask-2" fill="white">
                                <use xlink:href="#path-1"></use>
                            </mask>
                            <use id="Mask" fill="#000000" xlink:href="#path-1"></use>
                            <g id="Color-/-Color-01" mask="url(#mask-2)" fill="#FFFFFF">
                                <rect id="color" x="0" y="0" width="40" height="40"></rect>
                            </g>
                        </g>
                    </g>
                </g>
            </g>
        </g>
    </g>
</svg>