<?xml version="1.0" encoding="UTF-8"?>
<svg width="34px" height="30px" viewBox="0 0 34 30" version="1.1" xmlns="http://www.w3.org/2000/svg" xmlns:xlink="http://www.w3.org/1999/xlink">
    <!-- Generator: Sketch 61.2 (89653) - https://sketch.com -->
    <title>Places/ic_business_center</title>
    <desc>Created with Sketch.</desc>
    <defs>
        <path d="M16.6666667,26.6666667 L16.6666667,25 L5.01666667,25 L5,31.6666667 C5,33.5166667 6.48333333,35 8.33333333,35 L31.6666667,35 C33.5166667,35 35,33.5166667 35,31.6666667 L35,25 L23.3333333,25 L23.3333333,26.6666667 L16.6666667,26.6666667 L16.6666667,26.6666667 Z M33.3333333,11.6666667 L26.65,11.6666667 L26.65,8.33333333 L23.3166667,5 L16.65,5 L13.3166667,8.33333333 L13.3166667,11.6666667 L6.66666667,11.6666667 C4.83333333,11.6666667 3.33333333,13.1666667 3.33333333,15 L3.33333333,20 C3.33333333,21.85 4.81666667,23.3333333 6.66666667,23.3333333 L16.6666667,23.3333333 L16.6666667,20 L23.3333333,20 L23.3333333,23.3333333 L33.3333333,23.3333333 C35.1666667,23.3333333 36.6666667,21.8333333 36.6666667,20 L36.6666667,15 C36.6666667,13.1666667 35.1666667,11.6666667 33.3333333,11.6666667 L33.3333333,11.6666667 Z M23.3333333,11.6666667 L16.6666667,11.6666667 L16.6666667,8.33333333 L23.3333333,8.33333333 L23.3333333,11.6666667 L23.3333333,11.6666667 Z" id="path-1"></path>
    </defs>
    <g id="DASHBOARD" stroke="none" stroke-width="1" fill="none" fill-rule="evenodd">
        <g id="00_Dashboard_DE-Copy" transform="translate(-326.000000, -1030.000000)">
            <g id="Statistics_part_1" transform="translate(283.000000, 1000.000000)">
                <g id="REVENUE-1">
                    <g id="ICON" transform="translate(15.000000, 0.000000)">
                        <g id="Places/ic_business_center" transform="translate(25.000000, 25.000000)">
                            <polygon id="Bounds" points="0 0 40 0 40 40 0 40"></polygon>
                            <mask id="mask-2" fill="white">
                                <use xlink:href="#path-1"></use>
                            </mask>
                            <use id="Mask" fill="#000000" xlink:href="#path-1"></use>
                            <g id="Color-/-Color-01" mask="url(#mask-2)" fill="#FFFFFF">
                                <rect id="color" x="0" y="0" width="40" height="40"></rect>
                            </g>
                        </g>
                    </g>
                </g>
            </g>
        </g>
    </g>
</svg>