<?xml version="1.0" encoding="UTF-8"?>
<svg width="14px" height="14px" viewBox="0 0 14 14" version="1.1" xmlns="http://www.w3.org/2000/svg" xmlns:xlink="http://www.w3.org/1999/xlink">
    <!-- Generator: sketchtool 52.2 (67145) - http://www.bohemiancoding.com/sketch -->
    <title>5A9CFA84-03DB-42D9-9758-32AD38ED8CF2@1x</title>
    <desc>Created with sketchtool.</desc>
    <defs>
        <path d="M15.7499998,7.59 L10.6649999,7.59 L12.7199999,5.475 C10.6724999,3.45 7.35749997,3.375 5.31000001,5.4 C3.26250004,7.4325 3.26250004,10.71 5.31000001,12.7425 C7.35749997,14.775 10.6724999,14.775 12.7199999,12.7425 C13.7399999,11.7375 14.2499998,10.56 14.2499998,9.075 L15.7499998,9.075 C15.7499998,10.56 15.0899998,12.4875 13.7699999,13.7925 C11.1374999,16.4025 6.86249998,16.4025 4.23000003,13.7925 C1.60500007,11.19 1.58250007,6.96 4.21500003,4.3575 C6.84749998,1.755 11.0699999,1.755 13.7024999,4.3575 L15.7499998,2.25 L15.7499998,7.59 L15.7499998,7.59 Z M9.37500018,6 L9.37500018,9.18749998 L12.0000002,10.7475 L11.4600002,11.655 L8.25000018,9.74999998 L8.25000018,6 L9.37500018,6 L9.37500018,6 Z" id="path-1"></path>
    </defs>
    <g id="DASHBOARD" stroke="none" stroke-width="1" fill="none" fill-rule="evenodd">
        <g id="SLIDER" transform="translate(-1535.000000, -1165.000000)">
            <g id="Action/ic_update-Copy-3-Action/ic_update" transform="translate(1533.000000, 1163.000000)">
                <polygon id="Bounds" points="0 0 18 0 18 18 0 18"></polygon>
                <mask id="mask-2" fill="white">
                    <use xlink:href="#path-1"></use>
                </mask>
                <use id="Mask" fill="#000000" xlink:href="#path-1"></use>
                <g id="↳-🎨Color-Color-/-Color-01" mask="url(#mask-2)" fill="#9E9E9E">
                    <rect id="color" x="0" y="0" width="18" height="18"></rect>
                </g>
            </g>
        </g>
    </g>
</svg>