<?xml version="1.0" encoding="UTF-8"?>
<svg width="19px" height="23px" viewBox="0 0 19 23" version="1.1" xmlns="http://www.w3.org/2000/svg" xmlns:xlink="http://www.w3.org/1999/xlink">
    <!-- Generator: Sketch 61.2 (89653) - https://sketch.com -->
    <title>Hardware/ic_security Copy</title>
    <desc>Created with Sketch.</desc>
    <defs>
        <path d="M14.9436145,5.17349398 C15.3877108,5.11855422 15.6944578,5.60843373 15.4563855,5.98385542 C15.1175904,6.52409639 14.8291566,7.27951807 15.0626506,8.10361446 C15.0718072,8.14481928 15.0809639,8.19060241 15.0809639,8.23180723 C16.2026506,9.13831325 17.0404819,10.3012048 17.4708434,11.619759 L17.4708434,11.619759 L18.1209639,11.619759 C18.6108434,11.619759 19.0045783,12.0180723 19.0000395,12.4987952 L19.0000395,12.4987952 L19.0000395,14.6826506 C19.0000395,15.1679518 18.6062651,15.5662651 18.1163855,15.5662651 L18.1163855,15.5662651 L17.5028916,15.5662651 C17.1183133,16.8115663 16.3720482,17.9286747 15.3693976,18.8214458 L15.3693976,18.8214458 L15.3556627,18.8328916 L15.3556627,18.8328916 L15.3419277,18.8443373 C15.3098795,18.8763855 15.2778313,18.9038554 15.2457831,18.9313253 C14.3438554,19.7462651 14.2614458,20.7031325 14.2568675,20.9412048 L14.2568675,20.9412048 L14.2568675,21.6645783 C14.2568675,21.9301205 14.0416867,22.1453012 13.7761446,22.1453012 L13.7761446,22.1453012 L10.8551807,22.1453012 C10.5896386,22.1453012 10.3744578,21.9301205 10.3744578,21.6645783 L10.3744578,21.6645783 L10.3744578,20.9778313 C10.040241,21.0144578 9.70144578,21.0327711 9.35807229,21.0327711 C8.91855422,21.0327711 8.48361446,21.0007229 8.06240964,20.9457831 L8.06240964,20.9457831 L8.06240964,21.6691566 C8.06240964,21.9346988 7.84722892,22.1498795 7.58168675,22.1498795 L7.58168675,22.1498795 L4.66072289,22.1498795 C4.40891566,22.1498795 4.20289157,21.9484337 4.18457831,21.7012048 L4.18457831,21.7012048 L4.18457831,21.4493976 C4.16168675,20.9457831 4.0060241,19.7737349 3.08578313,18.8260241 C2.4539759,18.1713253 1.98698795,17.3701205 1.67108434,16.6833735 C1.42843373,16.2163855 1.24072289,15.7219277 1.11710843,15.2091566 C1.11253012,15.1954217 1.11253012,15.1862651 1.11253012,15.1862651 L1.11253012,15.1862651 L1.04777446,14.8874294 C0.970419277,14.4861494 0.92939759,14.0737349 0.92939759,13.6525301 C0.92939759,12.6773494 1.14457831,11.7525301 1.53373494,10.9009639 C2.66457831,11.7662651 4.07927711,12.2836145 5.61301205,12.2836145 C8.78120482,12.2836145 11.4320482,10.0906024 12.1416867,7.14674699 C12.2424096,6.73012048 12.4713253,6.3546988 12.7963855,6.07084337 C13.2679518,5.66337349 13.9501205,5.29710843 14.9436145,5.17349398 Z M14.4720482,10.3286747 C14.0737349,10.3286747 13.7486747,10.6537349 13.7486747,11.0520482 C13.7486747,11.4503614 14.0737349,11.7754217 14.4720482,11.7754217 C14.8703614,11.7754217 15.1954217,11.4503614 15.1954217,11.0520482 C15.1954217,10.6537349 14.8703614,10.3286747 14.4720482,10.3286747 Z M5.61301205,-4.06588343e-14 C8.69421687,-4.06588343e-14 11.1893976,2.49518072 11.1893976,5.57638554 C11.1893976,8.65759036 8.69421687,11.1527711 5.61301205,11.1527711 C2.53638554,11.1527711 0.0412048193,8.65301205 0.036626506,5.57638554 C0.036626506,2.49518072 2.53180723,-4.06588343e-14 5.61301205,-4.06588343e-14 Z M7.45349398,2.69204819 C6.82168675,2.44939759 6.17156627,2.35325301 5.49855422,2.46313253 C5.02698795,2.54096386 4.58289157,2.70120482 4.20289157,2.99879518 C3.72216867,3.37421687 3.41084337,3.86409639 3.22771084,4.44096386 L3.22771084,4.44096386 L3.20481928,4.50963855 L2.53180723,4.50963855 C2.42650602,4.50963855 2.33951807,4.59662651 2.33951807,4.70192771 L2.33951807,4.70192771 L2.33951807,5.13228916 C2.33951807,5.23759036 2.42650602,5.32457831 2.53180723,5.32457831 L2.53180723,5.32457831 L3.06289157,5.32457831 L3.06289157,5.32457831 L3.06289157,5.67710843 L2.53180723,5.67710843 C2.42650602,5.67710843 2.33951807,5.76409639 2.33951807,5.86939759 L2.33951807,5.86939759 L2.33493976,5.86939759 L2.33493976,6.29518072 C2.33493976,6.40048193 2.42192771,6.48746988 2.52722892,6.48746988 L2.52722892,6.48746988 L3.16819277,6.48746988 C3.2139759,6.64313253 3.25518072,6.80337349 3.31927711,6.95445783 C3.63975904,7.7373494 4.18457831,8.2913253 4.99951807,8.55686747 C5.67253012,8.77204819 6.3546988,8.76746988 7.03228916,8.57975904 C7.21084337,8.52939759 7.38481928,8.46987952 7.55421687,8.39204819 C7.71903614,8.31879518 7.76024096,8.19060241 7.69614458,8.03493976 C7.62746988,7.86096386 7.55421687,7.68698795 7.47638554,7.51759036 C7.40771084,7.36650602 7.31614458,7.32072289 7.1513253,7.3573494 C6.94072289,7.40313253 6.7346988,7.46722892 6.52409639,7.51301205 C6.11662651,7.59542169 5.70915663,7.60457831 5.30626506,7.47638554 C4.8026506,7.32072289 4.53253012,6.95445783 4.36771084,6.48289157 L4.36771084,6.48289157 L5.73662651,6.48289157 C5.84192771,6.48289157 5.92891566,6.39590361 5.92891566,6.29060241 L5.92891566,6.29060241 L5.92891566,5.86024096 C5.92891566,5.75493976 5.84192771,5.66795181 5.73662651,5.66795181 L5.73662651,5.66795181 L4.23951807,5.66795181 L4.23951807,5.66795181 L4.23951807,5.31542169 L5.73662651,5.31542169 C5.84192771,5.31542169 5.92891566,5.22843373 5.92891566,5.12313253 L5.92891566,5.12313253 L5.92891566,4.69277108 C5.92891566,4.58746988 5.84192771,4.50048193 5.73662651,4.50048193 L5.73662651,4.50048193 L4.42722892,4.50048193 L4.42722892,4.50048193 L4.42722892,4.48674699 C4.58746988,4.12963855 4.81638554,3.84578313 5.19180723,3.6946988 C5.6313253,3.52072289 6.08,3.5253012 6.5286747,3.61686747 C6.74385542,3.65807229 6.94987952,3.72216867 7.16506024,3.77253012 C7.31614458,3.80915663 7.40771084,3.76337349 7.47638554,3.61686747 C7.55421687,3.45204819 7.62746988,3.27807229 7.69614458,3.1086747 C7.76481928,2.94843373 7.72361446,2.83855422 7.57253012,2.74698795 C7.53590361,2.7286747 7.4946988,2.70578313 7.45349398,2.69204819 Z" id="path-1"></path>
    </defs>
    <g id="DASHBOARD" stroke="none" stroke-width="1" fill="none" fill-rule="evenodd">
        <g id="00_Dashboard_DE-Copy" transform="translate(-934.000000, -1750.000000)">
            <g id="Contracts" transform="translate(831.000000, 1608.000000)">
                <g id="table" transform="translate(78.000000, 96.000000)">
                    <g id="Hardware/ic_security-Copy" transform="translate(22.000000, 45.000000)">
                        <polygon id="Bounds" points="0 0 24 0 24 24 0 24"></polygon>
                        <g id="↳-🎨Color" transform="translate(3.000000, 1.000000)">
                            <mask id="mask-2" fill="white">
                                <use xlink:href="#path-1"></use>
                            </mask>
                            <use id="Mask" fill="#000000" fill-rule="nonzero" xlink:href="#path-1"></use>
                            <g id="Color-/-Color-01" mask="url(#mask-2)" fill="#FFA300">
                                <g transform="translate(-3.166667, -1.055556)" id="color">
                                    <rect x="0" y="0" width="25.3333333" height="25.3333333"></rect>
                                </g>
                            </g>
                        </g>
                    </g>
                </g>
            </g>
        </g>
    </g>
</svg>