<?xml version="1.0" encoding="UTF-8"?>
<svg width="18px" height="18px" viewBox="0 0 18 18" version="1.1" xmlns="http://www.w3.org/2000/svg" xmlns:xlink="http://www.w3.org/1999/xlink">
    <!-- Generator: Sketch 61.2 (89653) - https://sketch.com -->
    <title>Hardware/ic_security Copy 4</title>
    <desc>Created with Sketch.</desc>
    <defs>
        <path d="M19,3 L5,3 C3.89,3 3,3.9 3,5 L3,19 C3,20.1 3.89,21 5,21 L19,21 C20.11,21 21,20.1 21,19 L21,5 C21,3.9 20.11,3 19,3 L19,3 Z M10,17 L5,12 L6.41,10.59 L10,14.17 L17.59,6.58 L19,8 L10,17 L10,17 Z" id="path-1"></path>
    </defs>
    <g id="DASHBOARD" stroke="none" stroke-width="1" fill="none" fill-rule="evenodd">
        <g id="00_Dashboard_DE-Copy" transform="translate(-934.000000, -1887.000000)">
            <g id="Contracts" transform="translate(831.000000, 1608.000000)">
                <g id="table" transform="translate(78.000000, 96.000000)">
                    <g id="Hardware/ic_security-Copy-4" transform="translate(22.000000, 180.000000)">
                        <polygon id="Bounds" points="0 0 24 0 24 24 0 24"></polygon>
                        <mask id="mask-2" fill="white">
                            <use xlink:href="#path-1"></use>
                        </mask>
                        <use id="Mask" fill="#000000" xlink:href="#path-1"></use>
                        <g id="Color-/-Color-01" mask="url(#mask-2)" fill="#09D0BD">
                            <rect id="color" x="0" y="0" width="24" height="24"></rect>
                        </g>
                    </g>
                </g>
            </g>
        </g>
    </g>
</svg>